<svg xmlns="http://www.w3.org/2000/svg" xmlns:xlink="http://www.w3.org/1999/xlink" viewBox="0 0 666 666"><defs><linearGradient id="linear-gradient" y1="533.51" x2="666" y2="533.51" gradientTransform="matrix(1, 0, 0, -1, 0, 866.51)" gradientUnits="userSpaceOnUse"><stop offset="0" stop-color="#0075be"/><stop offset="0.99" stop-color="#005b97"/></linearGradient><linearGradient id="linear-gradient-2" x1="465.35" y1="532.7" x2="511.73" y2="532.7" xlink:href="#linear-gradient"/><linearGradient id="linear-gradient-3" x1="79.78" y1="584.33" x2="354.88" y2="584.33" xlink:href="#linear-gradient"/><linearGradient id="linear-gradient-4" x1="186.44" y1="410.91" x2="416.65" y2="410.91" xlink:href="#linear-gradient"/><linearGradient id="linear-gradient-5" x1="99.27" y1="532.69" x2="447.02" y2="532.69" xlink:href="#linear-gradient"/></defs><g id="Layer_2" data-name="Layer 2"><g id="Layer_1-2" data-name="Layer 1"><g id="Layer_2-2" data-name="Layer 2"><g id="Layer_1-2-2" data-name="Layer 1-2"><path d="M666,333.37c-4,2.83-6.45,4.13-8.34,6q-71.13,70.89-142.08,141.89c-17.09,17.2-32.58,36-50.21,52.6C416.2,580.07,357.54,605.26,290,608.39c-81,3.71-151-23.06-208.62-79.69C35.19,483.38,8.21,427.9,1.66,363.4c-8.9-87.7,18-163.57,80.13-225.87C195.36,23.7,383.35,32.26,487.13,155q8.78,10.37,18.42,20,75.91,76,152,151.73C659.45,328.56,661.77,330,666,333.37Zm-348.55-.21,93.88-93.57c-33.33-50.83-103.58-85-177.53-65.78-72.76,18.94-125.12,87-123.67,160.6,1.53,77.37,53.27,142.39,128,160.3,73.17,17.55,142.52-18.59,173.67-67.65Zm123.19-.58c0,26.85,22.36,49.19,49.14,49.07a49,49,0,1,0-49.14-49.07Z" style="fill:url(#linear-gradient)"/><path d="M511.73,333.52A23,23,0,0,1,489.17,357h-.44a23.2,23.2,0,0,1-23.38-23v-.12a23.46,23.46,0,0,1,22.76-23.13,22.93,22.93,0,0,1,23.61,22.25C511.73,333.13,511.73,333.32,511.73,333.52Z" style="fill:url(#linear-gradient-2)"/><path d="M175.4,196.26c7.58-8.21-6.6-19-3.79-28.67,2.17-13.26,39.1-25.66,51-24.86,4.25.58,9.09,5.7,10,10,3.11,3.81,3.81,15,10.45,14.41,12.64-3.17,25.39-1,38.15-2,17.14-1,25.59,9.21,31.9-11.92,3.53-15,20.94-12.29,30.85-5.17,3,.66,12.65,2.56,9.94,5.77-30.13,8.44-52.67,36.44-55.55,67.38-82-12-165.78,66.88-130.19,153.77-12,21.92-38.86-7-75.13,46.61-33.73-65.85,13.14-33.48,12.78-63a149.69,149.69,0,0,1,0-53.56c-3.12-15.21-40.16-6.53-19.07-41.53,4.39-19.47,17.22-42,39-25.12,2.26,1.69,6,2.69,7.65-.33C145,222.26,158.28,206.37,175.4,196.26Z" style="fill:#fff;stroke-miterlimit:10;stroke:url(#linear-gradient-3)"/><path d="M416.29,426.92C403.08,440.78,388,461.32,370.42,472c-8.69,5.54,4.78,15.29,3.78,23.65,1,11.94-6.39,15.76-16.49,18.67-10.45,4.33-22.51,13.74-34,11.29-14.38-1-9.35-23.75-21.78-24.43a199,199,0,0,1-55.85.34c-18.63-1.82-7.2,40.42-44.23,18.67-45.52-9.35,28.44-18.37,20.57-73-.52-4.25,6.11-11.86,10.11-9,55.67,22.15,114.77-6,139.8-53.69" style="fill:#fff;stroke-miterlimit:10;stroke:url(#linear-gradient-4)"/><path d="M446,223.63c1.1-2.87-.43-20-5.62-13.44-10.95,10.63-21.62,21.54-32.42,32.31-7.11,7.91-16.58,4.95-24.38-.06-47.21-41.86-13.18-42.1,14.69-78-47.9-20.21-103.37,32.65-87.19,83.57C266.5,297.69,214.3,350.53,164.16,394.66c-86.34-7.88-85.86,123,1.48,112.35,29.28-3.22,51.12-32.26,47.83-61.48,29.94-45.3,80.28-80.88,117.14-122.71,40.48-39,10.83-21,56.55-24.19C423.3,294.17,450.66,259.7,446,223.63ZM184.49,444.09c-3.78,8.24-2.86,23-9.91,28.29-33.72,8.24-20.18,11.5-45.3-12.32-2.9-.27,4.36-30.15,8.39-30.82C169.54,420.75,161.46,418.19,184.49,444.09Z" style="fill:#fff;stroke-miterlimit:10;stroke:url(#linear-gradient-5)"/></g></g><rect width="666" height="666" style="fill:none"/></g></g></svg>